<svg xmlns="http://www.w3.org/2000/svg" version="1.1" width="786" height="535"><metadata><rdf:RDF xmlns:rdf="http://www.w3.org/1999/02/22-rdf-syntax-ns#" xmlns:dc="http://purl.org/dc/elements/1.1/"><rdf:Description><dc:creator>RealFaviconGenerator</dc:creator><dc:source>https://realfavicongenerator.net</dc:source></rdf:Description></rdf:RDF></metadata><path d="M0 0 C259.38 0 518.76 0 786 0 C786 176.55 786 353.1 786 535 C526.62 535 267.24 535 0 535 C0 358.45 0 181.9 0 0 Z " fill="#FEFEFE" transform="translate(0,0)"></path><path d="M0 0 C0.74229355 -0.00029205 1.4845871 -0.00058411 2.24937439 -0.00088501 C4.67882381 0.00049736 7.10795833 0.01600639 9.53735352 0.03173828 C11.23128593 0.03547231 12.92522053 0.03831744 14.61915588 0.04031372 C19.05954031 0.0479195 23.49979216 0.0675415 27.94012451 0.08972168 C32.47837532 0.11024618 37.01664772 0.11932952 41.55493164 0.12939453 C50.44627505 0.1507905 59.3374856 0.18594749 68.22875977 0.22705078 C68.22875977 10.45705078 68.22875977 20.68705078 68.22875977 31.22705078 C63.31743164 31.24123047 58.40610352 31.25541016 53.34594727 31.27001953 C50.2286883 31.29008412 47.11157575 31.31160826 43.99438477 31.33837891 C39.04999081 31.38070304 34.1059681 31.41771045 29.16137695 31.42260742 C25.17341462 31.42689585 21.1862842 31.45540232 17.1985817 31.50048256 C15.67965674 31.5134404 14.16063214 31.51777127 12.64165878 31.51320457 C10.50816545 31.50828567 8.37709169 31.53443998 6.24389648 31.56762695 C5.03144257 31.57428879 3.81898865 31.58095062 2.5697937 31.58781433 C-2.31820364 32.52302964 -5.12262836 35.05388058 -8.14624023 39.03955078 C-9.61766807 44.18954821 -9.4784385 47.88842549 -7.02124023 52.53955078 C-3.74202303 56.45639355 -2.2447284 58.07657988 2.99658203 58.61181641 C4.51264617 58.63296046 6.02896593 58.63920349 7.54516602 58.63330078 C8.76271828 58.64955505 8.76271828 58.64955505 10.00486755 58.6661377 C12.60041183 58.70035816 15.19551991 58.71596509 17.79125977 58.72705078 C35.10126251 58.80204938 52.1525722 59.89789408 65.63891602 72.39501953 C70.45797726 77.94818839 74.1661938 84.56146603 77.22875977 91.22705078 C77.68766602 90.47939453 78.14657227 89.73173828 78.61938477 88.96142578 C79.23297852 87.97658203 79.84657227 86.99173828 80.47875977 85.97705078 C81.08204102 85.00251953 81.68532227 84.02798828 82.30688477 83.02392578 C84.08930418 80.42999834 85.92977604 78.3632746 88.22875977 76.22705078 C86.94463233 73.4031876 85.58666505 71.42608938 83.41625977 69.22705078 C75.70243251 60.20547394 74.22581484 50.28724605 74.74829102 38.79736328 C75.65716974 27.68477559 81.42461254 18.22878134 89.77172852 11.03564453 C95.53448026 6.62214073 101.30335813 3.41207055 108.22875977 1.22705078 C108.78827332 1.05013199 109.34778687 0.8732132 109.92425537 0.69093323 C113.07346828 0.05701619 116.07977219 0.10790919 119.29223633 0.11352539 C120.34649811 0.11330635 120.34649811 0.11330635 121.42205811 0.11308289 C123.7378654 0.11377779 126.05359158 0.1215504 128.36938477 0.12939453 C129.97792517 0.13126021 131.58646615 0.13268341 133.19500732 0.13368225 C137.42331518 0.13749562 141.65158855 0.14731583 145.87988281 0.15838623 C150.19669122 0.16862572 154.51350521 0.17318531 158.83032227 0.17822266 C167.29648567 0.18893916 175.76261445 0.20652641 184.22875977 0.22705078 C184.22875977 10.45705078 184.22875977 20.68705078 184.22875977 31.22705078 C177.40317383 31.26572266 177.40317383 31.26572266 170.43969727 31.30517578 C167.55031864 31.33035389 164.6610437 31.35669386 161.77172852 31.38720703 C157.18953102 31.43548793 152.60757364 31.47955255 148.02514648 31.49804688 C144.32901798 31.51323408 140.63351925 31.54771482 136.93767166 31.5953598 C135.53039664 31.61015259 134.12303169 31.6180906 132.71567917 31.61893463 C130.73864946 31.62131199 128.76170901 31.65072024 126.78491211 31.68115234 C125.09946793 31.69447601 125.09946793 31.69447601 123.37997437 31.70806885 C118.60108474 32.49511692 115.42459125 34.792053 112.35375977 38.47705078 C110.32393356 43.43884817 110.64825499 47.55003697 112.35375977 52.47705078 C114.58334302 55.74710622 116.57430923 57.75856338 120.22875977 59.22705078 C124.57699456 59.83864381 128.89765778 59.83199382 133.28344727 59.83642578 C134.54013214 59.85296204 135.79681702 59.86949829 137.09158325 59.88653564 C140.41585485 59.92679226 143.73936238 59.95017318 147.06378174 59.965271 C150.46268002 59.98489782 153.86130341 60.02664717 157.26000977 60.06689453 C163.91643472 60.14410581 170.57165893 60.18462184 177.22875977 60.22705078 C177.22875977 70.45705078 177.22875977 80.68705078 177.22875977 91.22705078 C171.30422852 91.23091797 171.30422852 91.23091797 165.26000977 91.23486328 C161.42071807 91.25769956 157.58163886 91.29071503 153.74243164 91.32470703 C151.0805451 91.3461608 148.42020989 91.35044164 145.75805664 91.34716797 C141.92463907 91.34430293 138.09315851 91.37970657 134.26000977 91.42236328 C133.07636841 91.41326935 131.89272705 91.40417542 130.67321777 91.39480591 C124.04839985 91.51049075 119.86017871 92.25011246 114.71594238 96.55221558 C111.22516661 100.48345717 110.86728394 103.95752309 110.95922852 109.03955078 C111.3192522 111.96148211 112.51502969 113.87067192 114.22875977 116.22705078 C114.22875977 116.88705078 114.22875977 117.54705078 114.22875977 118.22705078 C115.40438477 118.69111328 115.40438477 118.69111328 116.60375977 119.16455078 C119.22875977 120.22705078 119.22875977 120.22705078 121.22875977 121.22705078 C123.22973495 121.34732551 125.23462187 121.40442336 127.23901367 121.43237305 C128.50016998 121.45231827 129.76132629 121.47226349 131.06069946 121.49281311 C132.44223913 121.50979743 133.82378011 121.52667624 135.20532227 121.54345703 C136.61494559 121.56402638 138.02456274 121.58502285 139.43417358 121.60643005 C143.14623012 121.66165273 146.85834233 121.71106109 150.57049561 121.75927734 C155.02340798 121.8183178 159.47621848 121.88454684 163.92904663 121.94957733 C170.69555551 122.04758935 177.46212941 122.13644348 184.22875977 122.22705078 C184.22875977 132.45705078 184.22875977 142.68705078 184.22875977 153.22705078 C174.90073477 153.31777335 165.5730075 153.39100838 156.2446394 153.43429947 C151.91211107 153.45508729 147.57990279 153.4832417 143.24755859 153.52880859 C139.05890615 153.57258353 134.87055965 153.59625393 130.68169594 153.60655975 C129.09144596 153.61389482 127.50121086 153.62821703 125.91109276 153.64997101 C110.81639314 153.84808033 98.40719701 150.62738521 86.97094727 140.16064453 C81.92214562 134.79509297 78.47638258 128.80840762 75.22875977 122.22705078 C74.81625977 123.14486328 74.40375977 124.06267578 73.97875977 125.00830078 C67.57172208 138.83272397 59.88288677 145.03792474 46.25170898 151.50610352 C41.09935077 153.3423229 35.79517169 153.36804528 30.38745117 153.34057617 C29.24496918 153.34079521 29.24496918 153.34079521 28.07940674 153.34101868 C25.57968222 153.34032596 23.08003365 153.33256377 20.58032227 153.32470703 C18.84011882 153.32284057 17.09991485 153.32141774 15.35971069 153.32041931 C10.79277073 153.31661209 6.22586288 153.3067972 1.65893555 153.29571533 C-3.00658738 153.28546255 -7.67211552 153.28091342 -12.33764648 153.27587891 C-21.48219406 153.26517325 -30.62670945 153.24759106 -39.77124023 153.22705078 C-39.77124023 142.99705078 -39.77124023 132.76705078 -39.77124023 122.22705078 C-34.71553711 122.20126953 -29.65983398 122.17548828 -24.45092773 122.14892578 C-21.24254411 122.12375062 -18.03425413 122.09741278 -14.82592773 122.06689453 C-9.73673175 122.01859556 -4.6477526 121.97453757 0.44165039 121.95605469 C4.54623209 121.94087843 8.65024546 121.90641637 12.75457382 121.85874176 C14.31815518 121.84393783 15.88181769 121.83601033 17.4454689 121.83516693 C19.64093417 121.83279238 21.83483494 121.80567762 24.0300293 121.77294922 C25.278013 121.76406677 26.5259967 121.75518433 27.8117981 121.74603271 C31.87634721 121.12869259 34.03997297 119.778124 37.22875977 117.22705078 C40.53030352 112.49483807 41.1248455 107.83513794 40.22875977 102.22705078 C37.82786689 97.33292299 34.96708071 94.83704709 30.22875977 92.22705078 C27.28701317 91.86895978 24.7180335 91.71461932 21.78735352 91.75830078 C20.98322525 91.75125122 20.17909698 91.74420166 19.3506012 91.73693848 C15.93863763 91.70771024 12.52725891 91.72391958 9.11523438 91.73632812 C-7.10391965 91.75198519 -21.43433784 89.83247777 -33.86889648 78.27783203 C-37.79733415 74.03245035 -40.61997345 69.58529859 -42.77124023 64.22705078 C-43.21983398 63.15583984 -43.21983398 63.15583984 -43.67749023 62.06298828 C-47.96512785 50.19258413 -46.85264506 36.63766102 -41.77124023 25.22705078 C-34.91559564 12.74125247 -24.92085589 5.56648106 -11.58360291 1.17825317 C-7.63797968 0.19380165 -4.03188471 -0.04229312 0 0 Z " fill="#242424" transform="translate(498.771240234375,136.77294921875)"></path><path d="M0 0 C10.42936247 6.5166474 17.48407646 15.93522444 21.3710022 27.61585999 C22.01142514 30.98355861 21.96537275 34.33257999 21.97021484 37.74780273 C21.97529556 38.53039459 21.98037628 39.31298645 21.98561096 40.11929321 C21.99629555 41.81567206 22.0049232 43.51206483 22.01173019 45.20846367 C22.02354009 47.89442638 22.04299729 50.58022982 22.06484985 53.26612854 C22.12640314 60.90173038 22.18053512 68.53731429 22.21386719 76.1730957 C22.2348146 80.84625923 22.27011479 85.51912943 22.31462479 90.19212532 C22.32878042 91.9714621 22.33750624 93.75085075 22.34067917 95.53024101 C22.34558927 98.01974062 22.368748 100.50846146 22.39599609 102.99780273 C22.39298996 103.730952 22.38998383 104.46410126 22.3868866 105.21946716 C22.45850083 109.62645688 23.0857497 112.44383083 25.8125 115.9375 C30.06270662 118.77097108 33.82313257 118.46353554 38.8125 117.9375 C42.49873011 116.32477433 43.56605 115.307175 45.8125 111.9375 C46.00459831 109.43854399 46.08243675 107.05010712 46.06787109 104.55126953 C46.07149155 103.80118118 46.075112 103.05109283 46.07884216 102.27827454 C46.08573744 100.64792217 46.08824135 99.01754672 46.08689499 97.38718033 C46.08592829 94.79563163 46.09889337 92.20449616 46.11587524 89.61300659 C46.16207255 82.24399119 46.18670397 74.87501454 46.19335938 67.50585938 C46.19841426 62.99587219 46.22287439 58.48630972 46.25868607 53.97646713 C46.26840339 52.26792849 46.2708607 50.55933077 46.26551437 48.85077286 C46.22127085 33.99977323 48.03511348 21.7710751 57.8125 9.9375 C58.52792969 9.00164062 58.52792969 9.00164062 59.2578125 8.046875 C64.91645053 1.46981928 77.20804076 -5.49557685 85.87451172 -6.23950195 C102.87518174 -6.67950692 116.35751637 -5.54492701 129.5 6.375 C130.263125 7.220625 131.02625 8.06625 131.8125 8.9375 C132.29332031 9.42605469 132.77414062 9.91460937 133.26953125 10.41796875 C140.12615483 17.72591439 143.94351111 26.96615636 143.93275452 36.98054504 C143.93481651 38.46753906 143.93481651 38.46753906 143.93692017 39.98457336 C143.93332489 41.06063339 143.92972961 42.13669342 143.92602539 43.24536133 C143.92617142 44.38725922 143.92631744 45.5291571 143.9264679 46.70565796 C143.92577168 50.47696843 143.91799285 54.24822941 143.91015625 58.01953125 C143.90829104 60.63555372 143.90686762 63.25157654 143.90586853 65.86759949 C143.90276356 72.04752778 143.89456141 78.22743833 143.88451904 84.40735883 C143.873332 91.44482329 143.86784093 98.48228862 143.86282361 105.51975977 C143.8523781 119.99235029 143.83404299 134.46492162 143.8125 148.9375 C131.9325 148.9375 120.0525 148.9375 107.8125 148.9375 C107.8031543 145.48522949 107.79380859 142.03295898 107.78417969 138.47607422 C107.75041976 127.07259895 107.69507716 115.66928538 107.62859726 104.26595879 C107.58881586 97.35178115 107.55641891 90.43771718 107.54150391 83.5234375 C107.52709047 76.85134145 107.49196925 70.17964849 107.44419098 63.50769424 C107.4293483 60.96163112 107.42145734 58.41551772 107.42061615 55.86941147 C107.41825356 52.30432276 107.39122854 48.74021317 107.35839844 45.17529297 C107.3634288 44.12152969 107.36845917 43.06776642 107.37364197 41.98207092 C107.28855258 36.01371097 106.82694657 32.46891336 102.8125 27.9375 C98.85853037 25.96051519 94.11130647 26.36680708 89.8125 26.9375 C86.91566132 29.1390974 85.41952769 30.72344462 83.8125 33.9375 C83.70594428 36.38646755 83.65835219 38.80819226 83.65478516 41.2578125 C83.64970444 42.0125737 83.64462372 42.7673349 83.63938904 43.54496765 C83.62867382 45.18789503 83.62005817 46.83083711 83.61326981 48.4737854 C83.60147815 51.08115224 83.58202056 53.68835364 83.56015015 56.2956543 C83.49857221 63.71055515 83.44465739 71.12544252 83.41113281 78.54052734 C83.39007866 83.07524905 83.35468099 87.60967461 83.31037521 92.14422607 C83.2962895 93.86639903 83.2875097 95.58862445 83.28432083 97.31085205 C83.2520484 113.08386519 80.93436361 126.05835015 69.875 138.0234375 C57.58949187 149.42476133 43.2015312 151.93524289 27.0078125 151.37890625 C15.36237525 150.62994316 4.85127142 144.40312845 -3.06640625 135.92578125 C-12.62838847 123.72766358 -14.62720476 110.60950193 -14.56762505 95.4820137 C-14.5584098 92.92553268 -14.56885212 90.36976868 -14.58424377 87.81332397 C-14.62408145 80.55410649 -14.62553699 73.29495331 -14.62329102 66.03564453 C-14.62323992 61.57484835 -14.64238954 57.11444695 -14.67262459 52.653759 C-14.68342726 50.14030014 -14.67134106 47.6276004 -14.65879822 45.11416626 C-14.66770095 43.57301077 -14.67777475 42.03186144 -14.68920898 40.49072266 C-14.67946548 39.79662292 -14.66972198 39.10252319 -14.65968323 38.38739014 C-14.72981251 33.64772724 -15.84553289 31.26788238 -19.1875 27.9375 C-22.86928592 25.90282883 -26.02018632 25.34216947 -30.1875 25.9375 C-33.91426392 28.51756733 -36.51108522 30.71700579 -38.1875 34.9375 C-38.49505639 37.24876949 -38.49505639 37.24876949 -38.4659729 39.74639893 C-38.47713638 40.71111115 -38.48829987 41.67582336 -38.49980164 42.66976929 C-38.50196182 43.72137238 -38.50412201 44.77297546 -38.50634766 45.85644531 C-38.52141609 47.52518204 -38.52141609 47.52518204 -38.53678894 49.22763062 C-38.5676942 52.90695679 -38.58467671 56.58620996 -38.6015625 60.265625 C-38.62026821 62.81582267 -38.63984117 65.36601411 -38.6602478 67.91619873 C-38.70638457 73.94383874 -38.74377015 79.97147167 -38.77692068 85.999192 C-38.81515508 92.86257391 -38.86456176 99.72586119 -38.91490483 106.5891633 C-39.0181974 120.70521245 -39.10599162 134.82130912 -39.1875 148.9375 C-50.7375 148.9375 -62.2875 148.9375 -74.1875 148.9375 C-74.30066198 133.49872358 -74.39264324 118.06015464 -74.44656086 102.62107468 C-74.47226875 95.45133291 -74.50727568 88.28186841 -74.56469727 81.11230469 C-74.61476131 74.85837328 -74.64684482 68.60464281 -74.65794247 62.35051656 C-74.66442286 59.04331624 -74.6821768 55.73681964 -74.71615028 52.42977142 C-74.752684 48.7246507 -74.75743491 45.02070283 -74.75512695 41.31542969 C-74.77310333 40.23648438 -74.79107971 39.15753906 -74.80960083 38.04589844 C-74.72690702 25.69962166 -69.65338431 15.58990021 -61.15625 6.84765625 C-56.02902715 2.00026423 -50.71118332 -1.38664897 -44.1875 -4.0625 C-43.29675781 -4.42988281 -42.40601562 -4.79726562 -41.48828125 -5.17578125 C-28.01799373 -8.79442654 -12.12962959 -6.45290207 0 0 Z " fill="#232323" transform="translate(170.1875,141.0625)"></path><path d="M0 0 C12.21 0 24.42 0 37 0 C37.00410889 3.02704102 37.00821777 6.05408203 37.01245117 9.17285156 C37.02969754 19.20727054 37.07428092 29.2414365 37.13209057 39.27569962 C37.16628832 45.3557243 37.19145938 51.43549961 37.19555664 57.515625 C37.19985496 63.39029863 37.22844547 69.26441042 37.27343178 75.13890839 C37.28635771 77.37299062 37.29073199 79.60714025 37.28615379 81.84125519 C36.79560921 100.10679021 36.79560921 100.10679021 44.75505066 116.00006104 C50.62584283 121.6624322 57.36661778 123.57186779 65.3125 123.5 C66.05798096 123.49355469 66.80346191 123.48710937 67.5715332 123.48046875 C74.91850672 123.23798911 80.5388988 121.46849672 85.828125 116.16796875 C91.91763392 108.67432549 93.44695734 101.12908982 93.43237305 91.72851562 C93.4425647 90.73248322 93.45275635 89.73645081 93.46325684 88.7102356 C93.4932732 85.44218233 93.50263554 82.17442274 93.51171875 78.90625 C93.52857382 76.63080886 93.54672518 74.35537699 93.56611633 72.07995605 C93.61353224 66.10911962 93.64339614 60.13832076 93.66955566 54.1673584 C93.69940353 48.06722597 93.74591938 41.96722288 93.79101562 35.8671875 C93.87695326 23.91151126 93.94279952 11.9558483 94 0 C106.21 0 118.42 0 131 0 C131.04537521 12.12739814 131.08198733 24.25473892 131.10362434 36.3822031 C131.11401453 42.01484419 131.12808564 47.64742366 131.15087891 53.2800293 C131.17277853 58.7265425 131.18460436 64.17299683 131.18975449 69.6195507 C131.19341975 71.68652204 131.20057607 73.75349055 131.21146011 75.82043648 C131.32742857 98.7787262 129.99687716 120.52841771 113.375 138.1875 C97.1297906 153.70204031 78.61754187 155.58176108 57.19921875 155.34375 C48.98925237 155.08973531 42.42378926 153.65434588 35 150 C33.98164063 149.51917969 32.96328125 149.03835938 31.9140625 148.54296875 C18.25860134 141.60540872 8.87818832 130.58401377 4 116 C3.67740204 115.22928162 3.35480408 114.45856323 3.02243042 113.66448975 C-1.48463558 101.91891673 -0.25716944 88.52581416 -0.1953125 76.171875 C-0.19157633 73.9694227 -0.18873222 71.76696872 -0.18673706 69.56451416 C-0.17914815 63.80409044 -0.15954099 58.04376965 -0.1373291 52.28338623 C-0.11676787 46.39076123 -0.10771348 40.49811939 -0.09765625 34.60546875 C-0.07629012 23.0702603 -0.04114724 11.53515487 0 0 Z " fill="#252525" transform="translate(320,137)"></path><path d="M0 0 C5.5535414 5.86207148 7.25 10.21232671 7.25 18.375 C2.63 18.375 -1.99 18.375 -6.75 18.375 C-7.306875 17.09625 -7.86375 15.8175 -8.4375 14.5 C-9.83937716 11.71592115 -10.4450673 10.56758907 -13.125 8.875 C-17.32113283 8.0757366 -20.41125395 7.8457283 -24.4375 9.4375 C-28.57537069 12.90436463 -29.62389741 17.12880966 -30.1484375 22.3125 C-30.15628016 23.66666649 -30.14834462 25.02101203 -30.125 26.375 C-30.13660156 27.04789062 -30.14820313 27.72078125 -30.16015625 28.4140625 C-30.13066638 33.50597948 -29.038471 36.93136698 -26.75 41.375 C-24.38863092 43.59746502 -22.83530535 44.31185496 -19.6015625 44.5 C-15.29422284 44.27103842 -13.20077402 43.73186276 -9.75 41 C-7.60451744 38.47756146 -7.60451744 38.47756146 -6.75 35.375 C-5.78578125 35.38402344 -4.8215625 35.39304687 -3.828125 35.40234375 C2.98524863 35.62128262 2.98524863 35.62128262 8.859375 32.92578125 C9.77966384 31.13141047 9.77966384 31.13141047 10.4921875 29.21875 C12.13125417 25.23091769 15.54912666 23.197364 19.26171875 21.40234375 C27.31665015 18.46208865 35.81258175 19.11071892 44.25 19.375 C43.80209513 14.30966623 43.80209513 14.30966623 41.375 10 C37.49957515 7.03643982 33.99564601 7.04197221 29.25 7.375 C26.82715762 8.4825902 26.82715762 8.4825902 25.25 10.375 C24.92 11.695 24.59 13.015 24.25 14.375 C18.97 14.375 13.69 14.375 8.25 14.375 C9.34815354 6.68792524 10.65100314 4.26351809 16.25 -0.625 C23.40252146 -5.773085 31.78197499 -5.38813363 40.25 -4.625 C47.206622 -3.2534107 53.26669639 -0.49673642 57.38208008 5.4621582 C59.70126015 9.69116271 59.83579395 13.48417716 59.82421875 18.23046875 C59.83838333 19.05452713 59.85254791 19.87858551 59.86714172 20.72761536 C59.90878744 23.33937886 59.92423353 25.95045239 59.9375 28.5625 C59.96662483 31.18493863 60.00121046 33.80720666 60.03999329 36.42951965 C60.06235643 38.05548861 60.07825099 39.68156289 60.08683777 41.30766296 C60.12103783 44.89514442 60.37352312 47.86909247 61.25 51.375 C61.58 33.225 61.91 15.075 62.25 -3.625 C66.87 -3.625 71.49 -3.625 76.25 -3.625 C77.24 -0.655 77.24 -0.655 78.25 2.375 C79.06404297 1.74271484 79.06404297 1.74271484 79.89453125 1.09765625 C80.60996094 0.54980469 81.32539063 0.00195312 82.0625 -0.5625 C82.77019531 -1.10777344 83.47789062 -1.65304687 84.20703125 -2.21484375 C89.27814487 -5.71517266 95.34430519 -5.03862843 101.25 -4.625 C105.97790105 -3.61978861 109.28550608 -1.2349004 112.19548035 2.66442871 C116.23653393 9.2195557 116.66886387 15.29157544 116.54296875 22.78125 C116.53872391 23.7465564 116.53447906 24.71186279 116.53010559 25.7064209 C116.51343097 28.7629083 116.47579992 31.81871485 116.4375 34.875 C116.42243866 36.95832375 116.4087528 39.04165793 116.39648438 41.125 C116.36356424 46.20859215 116.31186016 51.29168099 116.25 56.375 C110.97 56.375 105.69 56.375 100.25 56.375 C100.22812622 54.45252441 100.22812622 54.45252441 100.20581055 52.49121094 C100.1478268 47.73490535 100.07059367 42.97907315 99.98754883 38.22314453 C99.95429989 36.16495447 99.92626786 34.10667324 99.90356445 32.04833984 C99.8700181 29.08912309 99.81770198 26.13074183 99.76171875 23.171875 C99.75213387 21.79198395 99.75213387 21.79198395 99.74235535 20.38421631 C99.63710162 15.40159434 99.63710162 15.40159434 97.92114258 10.79370117 C95.21804434 8.4989307 92.7090169 8.88345286 89.25 8.9375 C87.39375 8.93943359 87.39375 8.93943359 85.5 8.94140625 C82.3418823 9.09386798 82.3418823 9.09386798 80.57389832 10.62837219 C78.9154501 12.8163739 78.85670617 14.02690964 78.81762695 16.75463867 C78.79783279 17.63532516 78.77803864 18.51601166 78.75764465 19.42338562 C78.75125473 20.37034805 78.74486481 21.31731049 78.73828125 22.29296875 C78.71135445 23.75154045 78.71135445 23.75154045 78.68388367 25.23957825 C78.62967533 28.34717464 78.59585102 31.45461652 78.5625 34.5625 C78.52933624 36.66864134 78.49484747 38.77476227 78.45898438 40.88085938 C78.37144646 46.04559646 78.31146735 51.20962317 78.25 56.375 C67.69 56.375 57.13 56.375 46.25 56.375 C45.92 54.725 45.59 53.075 45.25 51.375 C44.70730469 51.72433594 44.16460937 52.07367188 43.60546875 52.43359375 C42.89003906 52.88863281 42.17460937 53.34367187 41.4375 53.8125 C40.72980469 54.26496094 40.02210938 54.71742188 39.29296875 55.18359375 C33.7964511 58.38901991 27.0257712 58.18092091 20.92578125 56.87890625 C13.842611 54.490866 10.10053804 49.50733836 6.25 43.375 C5.71375 44.261875 5.1775 45.14875 4.625 46.0625 C0.23320213 52.55073101 -5.13346386 55.88579667 -12.75 57.375 C-21.48951501 58.37161136 -28.52492011 57.6192144 -35.75 52.375 C-41.4337473 47.33591213 -45.12626397 41.62500171 -46.03393555 33.98510742 C-46.1511424 31.44129383 -46.15971963 28.92110656 -46.125 26.375 C-46.14240234 25.09882813 -46.14240234 25.09882813 -46.16015625 23.796875 C-46.11708947 14.43702741 -43.43147424 8.142117 -36.96875 1.36328125 C-26.74587514 -7.79771048 -11.33005163 -6.69503051 0 0 Z " fill="#252525" transform="translate(318.75,373.625)"></path><path d="M0 0 C0.87454834 0.00523682 1.74909668 0.01047363 2.65014648 0.01586914 C3.59438477 0.0190918 4.53862305 0.02231445 5.51147461 0.02563477 C6.50469727 0.03401367 7.49791992 0.04239258 8.52124023 0.05102539 C9.51833008 0.05553711 10.51541992 0.06004883 11.54272461 0.06469727 C14.01478872 0.07652532 16.48673541 0.0930069 18.95874023 0.11352539 C18.29711128 5.17570986 16.85240889 9.67539271 15.14233398 14.45336914 C14.85437454 15.27134476 14.5664151 16.08932037 14.26972961 16.93208313 C13.64438751 18.70743697 13.0169217 20.48204388 12.38757324 22.25598145 C10.6753239 27.08363485 8.97947865 31.91704507 7.28295898 36.75024414 C6.75093369 38.26450485 6.75093369 38.26450485 6.2081604 39.80935669 C2.29532967 50.96704409 -1.4981278 62.16471674 -5.29125977 73.36352539 C-9.92042792 87.01696687 -14.58699587 100.65440711 -19.41625977 114.23852539 C-19.64381958 114.87922974 -19.87137939 115.51993408 -20.10583496 116.18005371 C-22.00772622 121.52783155 -23.93297314 126.84280883 -26.04125977 132.11352539 C-32.97125977 132.11352539 -39.90125977 132.11352539 -47.04125977 132.11352539 C-45.65899199 125.89332041 -44.16259588 120.09537188 -42.09204102 114.12133789 C-41.80280762 113.27461014 -41.51357422 112.42788239 -41.21557617 111.55549622 C-40.26645064 108.78149574 -39.31025166 106.00999365 -38.35375977 103.23852539 C-37.68117862 101.27842297 -37.00890197 99.31821604 -36.33691406 97.35791016 C-31.10901153 82.12827847 -25.8113331 66.92277811 -20.48925781 51.72583008 C-17.45250362 43.0511221 -14.43436927 34.37085304 -11.46704102 25.67211914 C-11.18482193 24.84528122 -10.90260284 24.0184433 -10.61183167 23.16654968 C-9.28093071 19.26485358 -7.95392419 15.36188736 -6.63232422 11.45703125 C-6.1671448 10.08990089 -5.70189831 8.72279335 -5.23657227 7.35571289 C-4.8345459 6.1683252 -4.43251953 4.9809375 -4.01831055 3.75756836 C-2.68495967 0.14932499 -2.68495967 0.14932499 0 0 Z " fill="#262626" transform="translate(268.041259765625,330.886474609375)"></path><path d="M0 0 C3.84428575 0.76885715 6.73072185 1.57875355 10.28662109 3.0378418 C11.31894867 3.45885666 12.35127625 3.87987152 13.41488647 4.31364441 C14.52320831 4.77088394 15.63153015 5.22812347 16.7734375 5.69921875 C17.92937408 6.17188675 19.08531067 6.64455475 20.27627563 7.13154602 C23.35261608 8.39030078 26.42735634 9.65281429 29.50134277 10.91729736 C33.78032294 12.67625399 38.06241471 14.42762981 42.34381104 16.18069458 C44.69650812 17.14439185 47.04884935 18.10895837 49.40081787 19.07443237 C56.77690647 22.10035453 64.16897685 25.07944322 71.59228516 27.98754883 C74 29 74 29 75 30 C75.08651611 31.41570123 75.10704904 32.835595 75.09765625 34.25390625 C75.09282227 35.53491211 75.09282227 35.53491211 75.08789062 36.84179688 C75.07532227 38.18854492 75.07532227 38.18854492 75.0625 39.5625 C75.05798828 40.46419922 75.05347656 41.36589844 75.04882812 42.29492188 C75.03700225 44.53001314 75.0205222 46.76497437 75 49 C73.99662598 49.41137207 72.99325195 49.82274414 71.95947266 50.24658203 C68.06273622 51.8442717 64.16617725 53.4423939 60.2696228 55.04052734 C57.62495737 56.12501748 54.98008858 57.20901057 52.33520508 58.29296875 C43.52052068 61.90670858 34.70996984 65.52987105 25.91015625 69.1796875 C23.5805997 70.14447774 21.25096499 71.10907905 18.92132568 72.07366943 C17.43320885 72.69076687 15.94561747 73.30913296 14.45855713 73.92877197 C12.39420142 74.78891534 10.32815771 75.64487632 8.26171875 76.5 C7.09600342 76.9846875 5.93028809 77.469375 4.72924805 77.96875 C2 79 2 79 0 79 C0 71.74 0 64.48 0 57 C10.125 52.5 10.125 52.5 13.78540039 51.26074219 C14.60557144 50.98075378 15.42574249 50.70076538 16.27076721 50.41229248 C17.12114059 50.12670471 17.97151398 49.84111694 18.84765625 49.546875 C19.74495956 49.24179016 20.64226288 48.93670532 21.5667572 48.62237549 C24.39735018 47.66096689 27.22987012 46.70538832 30.0625 45.75 C31.9968759 45.09413656 33.93112197 44.43789007 35.86523438 43.78125 C40.57533502 42.18307202 45.28717148 40.59011489 50 39 C49.40309357 38.80177139 48.80618713 38.60354279 48.19119263 38.39930725 C41.99421171 36.34100561 35.79792827 34.28061487 29.60205078 32.21899414 C27.2877771 31.44924871 24.97332443 30.68004118 22.65869141 29.91137695 C19.3370958 28.8082089 16.01614279 27.70312566 12.6953125 26.59765625 C11.65569366 26.25283707 10.61607483 25.90801788 9.54495239 25.55274963 C8.58410736 25.23249313 7.62326233 24.91223663 6.63330078 24.58227539 C5.36089035 24.15924889 5.36089035 24.15924889 4.06277466 23.72767639 C2 23 2 23 0 22 C0 14.74 0 7.48 0 0 Z " fill="#252525" transform="translate(556,361)"></path><path d="M0 0 C0 7.59 0 15.18 0 23 C-3.36960937 24.14339844 -6.73921875 25.28679687 -10.2109375 26.46484375 C-13.46430955 27.56988765 -16.71751433 28.6754226 -19.97070312 29.78100586 C-22.2364789 30.55072616 -24.50242896 31.31993364 -26.76855469 32.08862305 C-30.02063926 33.19185646 -33.27209823 34.29691609 -36.5234375 35.40234375 C-37.54118256 35.74716293 -38.55892761 36.09198212 -39.60751343 36.44725037 C-40.54833771 36.76750687 -41.48916199 37.08776337 -42.45849609 37.41772461 C-43.28900482 37.69974228 -44.11951355 37.98175995 -44.97518921 38.27232361 C-47.02997607 38.96567015 -47.02997607 38.96567015 -49 40 C-39.194054 44.22519481 -29.00403329 47.40592139 -18.875 50.75 C-17.04157368 51.35779249 -15.20823952 51.96586305 -13.375 52.57421875 C-8.91788521 54.05320711 -4.4589352 55.52646459 0 57 C0 64.59 0 72.18 0 80 C-13.62936828 75.01845767 -26.99628091 69.49068325 -40.375 63.875 C-43.58809388 62.52907229 -46.80153991 61.18399185 -50.01528931 59.83963013 C-51.99700197 59.01036317 -53.97829557 58.18009369 -55.95907593 57.34860229 C-61.94947294 54.83833373 -67.96373925 52.3979853 -74 50 C-74 43.73 -74 37.46 -74 31 C-65.00035874 26.50017937 -65.00035874 26.50017937 -61.70898438 25.14404297 C-60.96543701 24.835952 -60.22188965 24.52786102 -59.45581055 24.21043396 C-58.67633057 23.89091263 -57.89685059 23.5713913 -57.09375 23.2421875 C-56.25884033 22.89708633 -55.42393066 22.55198517 -54.5637207 22.19642639 C-51.87693921 21.08653405 -49.18850682 19.98070563 -46.5 18.875 C-44.65287216 18.1130088 -42.80586741 17.35071912 -40.95898438 16.58813477 C-38.20671238 15.45174419 -35.45436302 14.31554675 -32.70153809 13.18049622 C-27.46230925 11.01979563 -22.22751476 8.84904468 -17 6.66015625 C-15.87787109 6.1904541 -14.75574219 5.72075195 -13.59960938 5.23681641 C-11.5795714 4.39004245 -9.56001557 3.54211711 -7.54101562 2.69287109 C-6.67154297 2.32887207 -5.80207031 1.96487305 -4.90625 1.58984375 C-4.16697266 1.27909912 -3.42769531 0.96835449 -2.66601562 0.64819336 C-1 0 -1 0 0 0 Z " fill="#252525" transform="translate(225,360)"></path><path d="M0 0 C5.20528503 3.11784138 9.3750412 7.1251236 11.3125 12.9375 C11.45517006 15.88742421 11.54608495 18.81792275 11.59375 21.76953125 C11.62136414 23.07358162 11.62136414 23.07358162 11.64953613 24.40397644 C11.70827623 27.18591558 11.76106451 29.9679168 11.8125 32.75 C11.88041447 36.40246577 11.95416498 40.05474888 12.03125 43.70703125 C12.04482544 44.54160355 12.05840088 45.37617584 12.0723877 46.23603821 C12.16395103 50.56673574 12.46337631 54.67254423 13.3125 58.9375 C10.87381832 59.0454859 8.43990867 59.12476589 6 59.1875 C5.30970703 59.22101563 4.61941406 59.25453125 3.90820312 59.2890625 C1.88671875 59.328125 1.88671875 59.328125 -1.6875 58.9375 C-3.66796875 56.921875 -3.66796875 56.921875 -4.6875 54.9375 C-5.595 55.576875 -6.5025 56.21625 -7.4375 56.875 C-13.45441887 60.69342928 -19.69871234 60.57447551 -26.6875 59.9375 C-32.64438307 58.23135509 -36.18409134 54.92720325 -39.6875 49.9375 C-41.6100412 44.1698764 -41.70836212 38.05775209 -39.0625 32.5625 C-33.45337174 26.36293718 -28.21342731 22.31648445 -19.61914062 21.81738281 C-14.63763904 21.68785528 -9.66738853 21.78312917 -4.6875 21.9375 C-4.81382812 20.65746094 -4.94015625 19.37742187 -5.0703125 18.05859375 C-5.14137207 17.33857178 -5.21243164 16.6185498 -5.28564453 15.87670898 C-5.54914719 13.7346684 -5.54914719 13.7346684 -7.5625 12 C-11.72248082 9.92000959 -15.06830385 9.60755742 -19.6875 9.9375 C-22.75866347 11.98494231 -22.74576073 13.1705429 -23.6875 16.9375 C-28.9675 16.9375 -34.2475 16.9375 -39.6875 16.9375 C-38.62881954 9.5267368 -37.64298374 6.25048728 -31.8125 1.6875 C-22.69935834 -3.41585933 -9.66228776 -4.47083026 0 0 Z " fill="#272727" transform="translate(527.6875,371.0625)"></path><path d="M0 0 C6.25731079 3.83100661 9.21363486 8.86327143 11.0625 15.875 C11.43679078 19.35305486 11.41421315 22.78646468 11.35546875 26.28125 C11.35122391 27.2465564 11.34697906 28.21186279 11.34260559 29.2064209 C11.32593097 32.2629083 11.28829992 35.31871485 11.25 38.375 C11.23493866 40.45832375 11.2212528 42.54165793 11.20898438 44.625 C11.17606424 49.70859215 11.12436016 54.79168099 11.0625 59.875 C5.7825 59.875 0.5025 59.875 -4.9375 59.875 C-4.95208252 58.59334961 -4.96666504 57.31169922 -4.98168945 55.99121094 C-5.0396732 51.23490535 -5.11690633 46.47907315 -5.19995117 41.72314453 C-5.23320011 39.66495447 -5.26123214 37.60667324 -5.28393555 35.54833984 C-5.3174819 32.58912309 -5.36979802 29.63074183 -5.42578125 26.671875 C-5.43217117 25.75194763 -5.4385611 24.83202026 -5.44514465 23.88421631 C-5.55039838 18.90159434 -5.55039838 18.90159434 -7.26635742 14.29370117 C-9.96945566 11.9989307 -12.4784831 12.38345286 -15.9375 12.4375 C-17.175 12.43878906 -18.4125 12.44007813 -19.6875 12.44140625 C-22.8456177 12.59386798 -22.8456177 12.59386798 -24.61360168 14.12837219 C-26.2720499 16.3163739 -26.33079383 17.52690964 -26.36987305 20.25463867 C-26.38966721 21.13532516 -26.40946136 22.01601166 -26.42985535 22.92338562 C-26.43944023 24.34382927 -26.43944023 24.34382927 -26.44921875 25.79296875 C-26.46716995 26.76534988 -26.48512115 27.73773102 -26.50361633 28.73957825 C-26.55782467 31.84717464 -26.59164898 34.95461652 -26.625 38.0625 C-26.65816376 40.16864134 -26.69265253 42.27476227 -26.72851562 44.38085938 C-26.81355731 49.54546161 -26.88031841 54.71001719 -26.9375 59.875 C-32.5475 59.875 -38.1575 59.875 -43.9375 59.875 C-43.4425 30.175 -43.4425 30.175 -42.9375 -0.125 C-38.3175 -0.125 -33.6975 -0.125 -28.9375 -0.125 C-28.2775 1.855 -27.6175 3.835 -26.9375 5.875 C-26.39480469 5.45347656 -25.85210937 5.03195312 -25.29296875 4.59765625 C-24.57753906 4.04980469 -23.86210937 3.50195312 -23.125 2.9375 C-22.41730469 2.39222656 -21.70960938 1.84695313 -20.98046875 1.28515625 C-15.37962073 -2.58082106 -6.25583888 -2.34766581 0 0 Z " fill="#272727" transform="translate(423.9375,370.125)"></path><path d="M0 0 C5.28 0 10.56 0 16 0 C16.38800781 1.17046875 16.77601563 2.3409375 17.17578125 3.546875 C18.37575117 7.15031202 19.59427505 10.74703862 20.82321167 14.34069824 C21.71965672 16.96614134 22.60952279 19.59379429 23.4987793 22.22167969 C23.96066285 23.58195214 24.42521384 24.94132158 24.89233398 26.29980469 C25.57466639 28.28607074 26.24720665 30.27542651 26.91796875 32.265625 C27.31781982 33.43899414 27.7176709 34.61236328 28.12963867 35.82128906 C28.92820463 38.73779082 29.18764352 41.00192826 29 44 C29.66 44 30.32 44 31 44 C31.11859375 42.8346875 31.2371875 41.669375 31.359375 40.46875 C31.88260868 36.30483442 32.94551565 32.49601536 34.25 28.5 C34.69955205 27.10948271 35.14876013 25.71885418 35.59765625 24.328125 C35.82855957 23.61978516 36.05946289 22.91144531 36.29736328 22.18164062 C37.00786492 19.97557994 37.69344124 17.76323167 38.37109375 15.546875 C38.5918457 14.82693359 38.81259766 14.10699219 39.04003906 13.36523438 C39.46193021 11.98692937 39.88194616 10.60804855 40.29980469 9.22851562 C41.31475944 5.94215631 42.4512474 3.09750519 44 0 C49.28 0 54.56 0 60 0 C55.36071227 13.69155647 50.30823236 27.19445913 45.125 40.6875 C44.61185745 42.02713303 44.61185745 42.02713303 44.08834839 43.39382935 C43.10635198 45.95519769 42.12035748 48.51498527 41.1328125 51.07421875 C40.83203293 51.85878448 40.53125336 52.64335022 40.22135925 53.45169067 C38.11540913 58.88459087 38.11540913 58.88459087 37 60 C34.64686445 60.07271741 32.29166332 60.08370868 29.9375 60.0625 C28.64714844 60.05347656 27.35679687 60.04445313 26.02734375 60.03515625 C25.02832031 60.02355469 24.02929688 60.01195312 23 60 C18.50897909 50.76034197 14.95559101 41.19493707 11.37890625 31.57470703 C10.37403946 28.87241692 9.36328752 26.17238522 8.3515625 23.47265625 C7.7001768 21.72929517 7.0491237 19.98580978 6.3984375 18.2421875 C6.10149994 17.4481955 5.80456238 16.65420349 5.49862671 15.83615112 C3.55133232 10.59223478 1.74471035 5.31484954 0 0 Z " fill="#252525" transform="translate(431,370)"></path><path d="M0 0 C1.11084961 0.02707031 1.11084961 0.02707031 2.24414062 0.0546875 C4.0591571 0.10152663 5.87350166 0.17326211 7.6875 0.25 C8.46841106 9.18709328 8.46841106 9.18709328 5.4375 13.3125 C0.78528805 16.59019478 -3.71631874 16.83484681 -9.3125 16.25 C-11.8125 15.3125 -11.8125 15.3125 -13.3125 13.25 C-13.93322396 10.12864522 -14.17122687 7.32754909 -13.3125 4.25 C-9.27451236 -0.29664888 -5.67034028 -0.26350107 0 0 Z " fill="#F9F9F9" transform="translate(355.3125,402.75)"></path><path d="M0 0 C1.05960938 0.00676758 1.05960938 0.00676758 2.140625 0.01367188 C3.88545275 0.02546125 5.630237 0.04339676 7.375 0.0625 C7.66281667 3.77213707 7.81759883 7.36173389 7.375 11.0625 C4.8218332 13.88442119 2.22690692 15.84056224 -1.61328125 16.30078125 C-5.63659488 16.42925681 -8.067607 16.35825955 -11.6875 14.4375 C-13.625 12.0625 -13.625 12.0625 -14.1875 9.125 C-13.50734836 5.42195217 -12.22628059 3.74028884 -9.625 1.0625 C-6.55966836 -0.47016582 -3.35745728 -0.04026471 0 0 Z " fill="#F9F9F9" transform="translate(515.625,402.9375)"></path><path d="M0 0 C1.79068573 2.6860286 2.66055791 4.6626589 3.625 7.6875 C3.88539063 8.49574219 4.14578125 9.30398438 4.4140625 10.13671875 C4.60742188 10.75160156 4.80078125 11.36648438 5 12 C4.01 12 3.02 12 2 12 C1.47026689 10.37787941 0.95146893 8.75218416 0.4375 7.125 C0.14746094 6.22007812 -0.14257812 5.31515625 -0.44140625 4.3828125 C-1 2 -1 2 0 0 Z " fill="#DBDBDB" transform="translate(432,374)"></path></svg>